<svg width="140" height="46" viewBox="0 0 140 46" fill="none" xmlns="http://www.w3.org/2000/svg">
<path d="M11.4455 45.048C9.6535 45.048 8.03217 44.92 6.5815 44.664C5.21617 44.408 4.19217 44.152 3.5095 43.896C2.57083 43.5547 1.8455 43.128 1.3335 42.616C0.906833 42.0187 0.6935 41.5067 0.6935 41.08C0.6935 40.4827 0.992167 40.184 1.5895 40.184C2.01617 40.184 2.52817 40.44 3.1255 40.952C4.32017 41.976 5.47217 42.5733 6.5815 42.744C7.52017 42.744 8.7575 42.616 10.2935 42.36C11.8295 42.0187 12.8962 41.5493 13.4935 40.952C14.5175 39.928 15.0295 38.904 15.0295 37.88C15.0295 37.1973 14.8162 36.5573 14.3895 35.96C14.0482 35.2773 13.5362 34.6373 12.8535 34.04C11.7442 33.1013 10.6348 32.1627 9.5255 31.224C8.41617 30.2 7.4775 29.0907 6.7095 27.896C5.51483 26.0187 4.9175 24.184 4.9175 22.392C4.9175 19.6613 5.8135 17.1013 7.6055 14.712C9.48283 12.3227 11.4882 10.36 13.6215 8.824C15.9255 7.20266 18.2722 6.392 20.6615 6.392C21.9415 6.392 23.1362 6.69066 24.2455 7.288C25.3548 7.8 26.2082 8.65333 26.8055 9.848C26.8908 10.0187 26.9335 10.232 26.9335 10.488C26.9335 11 26.7628 11.3413 26.4215 11.512C26.0802 11.6827 25.8242 11.512 25.6535 11C25.1415 9.63467 23.7335 8.952 21.4295 8.952C20.0642 8.952 18.5708 9.208 16.9495 9.72C15.4135 10.232 14.1762 10.8293 13.2375 11.512C10.3362 13.7307 8.8855 16.5893 8.8855 20.088C8.8855 22.5627 9.69617 24.7813 11.3175 26.744C12.4268 28.1093 13.5788 29.3893 14.7735 30.584C16.0535 31.6933 17.1202 32.8027 17.9735 33.912C18.8268 34.936 19.1255 35.96 18.8695 36.984C18.4428 38.8613 17.2055 40.3973 15.1575 41.592C13.1948 42.7013 11.3602 43.3413 9.6535 43.512C10.1655 43.5973 11.1042 43.64 12.4695 43.64C17.3335 43.64 21.4722 42.0187 24.8855 38.776C28.3842 35.5333 31.5842 31.6933 34.4855 27.256C34.6562 27 34.8268 26.872 34.9975 26.872C35.1682 26.872 35.2535 27.0853 35.2535 27.512C35.2535 28.024 35.0402 28.6213 34.6135 29.304C31.3708 34.2533 28.0002 38.136 24.5015 40.952C21.0882 43.6827 16.7362 45.048 11.4455 45.048ZM35.8995 43.896C34.3635 43.896 33.2542 43.384 32.5715 42.36C31.8888 41.336 31.5475 40.056 31.5475 38.52C31.5475 37.3253 31.6755 36.1733 31.9315 35.064C32.1022 34.552 32.5288 33.272 33.2115 31.224C33.9795 29.176 34.9608 26.9147 36.1555 24.44C37.4355 21.9653 38.8008 19.832 40.2515 18.04C41.7022 16.1627 43.1955 15.224 44.7315 15.224C45.4142 15.224 45.7555 15.3947 45.7555 15.736C45.7555 16.0773 45.5848 16.4187 45.2435 16.76C43.5368 18.808 41.9155 21.24 40.3795 24.056C38.9288 26.7867 37.6915 29.3893 36.6675 31.864C35.7288 34.3387 35.1742 36.216 35.0035 37.496C34.7475 40.2267 35.5582 41.592 37.4355 41.592C39.0568 41.592 40.7635 40.8667 42.5555 39.416C44.4328 37.88 46.2248 35.96 47.9315 33.656C49.7235 31.2667 51.2595 28.792 52.5395 26.232C53.9048 23.5867 55.3982 21.112 57.0195 18.808C58.6408 16.4187 60.3048 15.224 62.0115 15.224C62.6942 15.224 63.0355 15.3947 63.0355 15.736C63.0355 16.0773 62.8648 16.4187 62.5235 16.76C60.8168 18.808 59.1955 21.24 57.6595 24.056C56.2088 26.7867 54.9715 29.3893 53.9475 31.864C53.0088 34.3387 52.4542 36.216 52.2835 37.496C52.0275 40.2267 52.8382 41.592 54.7155 41.592C56.5928 41.592 58.5128 40.7387 60.4755 39.032C62.4382 37.3253 64.2728 35.3627 65.9795 33.144C67.6862 30.9253 69.0515 29.048 70.0755 27.512C70.4168 27.1707 70.6302 27 70.7155 27C70.9715 27 71.0995 27.2133 71.0995 27.64C71.0995 27.9813 70.9715 28.3653 70.7155 28.792C69.3502 31.0107 67.6862 33.3147 65.7235 35.704C63.8462 38.008 61.8408 39.9707 59.7075 41.592C57.5742 43.128 55.3982 43.896 53.1795 43.896C51.6435 43.896 50.5342 43.384 49.8515 42.36C49.1688 41.336 48.8275 40.056 48.8275 38.52C48.8275 37.3253 48.9555 36.1733 49.2115 35.064L49.4675 33.912C47.8462 36.0453 46.1395 37.9653 44.3475 39.672C42.6408 41.3787 40.9342 42.5307 39.2275 43.128C37.9475 43.64 36.8382 43.896 35.8995 43.896ZM84.4495 6.136C83.2548 6.136 82.5295 5.41066 82.2735 3.96C82.1882 3.27733 82.6148 2.59466 83.5535 1.912C84.4922 1.22933 85.2602 0.759997 85.8575 0.503998C86.2842 0.333331 86.6255 0.205331 86.8815 0.119999C87.1375 0.0346642 87.3508 -0.00800323 87.5215 -0.00800323C88.1188 -0.00800323 88.4175 0.290663 88.4175 0.887997C88.4175 1.57066 88.1615 2.38133 87.6495 3.32C87.2228 4.25866 87.0095 4.728 87.0095 4.728C86.9242 5.06933 86.6255 5.41066 86.1135 5.752C85.6015 6.008 85.0468 6.136 84.4495 6.136ZM71.6495 43.896C70.1135 43.896 69.0042 43.384 68.3215 42.36C67.6388 41.336 67.2975 40.056 67.2975 38.52C67.2975 37.3253 67.4255 36.1733 67.6815 35.064C67.8522 34.552 68.2788 33.272 68.9615 31.224C69.7295 29.176 70.7108 26.9147 71.9055 24.44C73.1855 21.9653 74.5508 19.832 76.0015 18.04C77.4522 16.1627 78.9455 15.224 80.4815 15.224C81.1642 15.224 81.5055 15.3947 81.5055 15.736C81.5055 16.0773 81.3348 16.4187 80.9935 16.76C79.2868 18.808 77.6655 21.24 76.1295 24.056C74.6788 26.7867 73.4415 29.3893 72.4175 31.864C71.4788 34.3387 70.9242 36.216 70.7535 37.496C70.4975 40.2267 71.3082 41.592 73.1855 41.592C73.4415 41.592 73.6975 41.592 73.9535 41.592C74.2095 41.5067 74.5082 41.4213 74.8495 41.336C76.6415 40.7387 78.3908 39.6293 80.0975 38.008C81.8042 36.3867 83.3828 34.5947 84.8335 32.632C86.2842 30.6693 87.4788 28.9627 88.4175 27.512C88.7588 27.1707 88.9722 27 89.0575 27C89.3135 27 89.4415 27.2133 89.4415 27.64C89.4415 28.0667 89.3135 28.4933 89.0575 28.92C87.1802 31.8213 84.9615 34.68 82.4015 37.496C79.9268 40.312 77.4522 42.1893 74.9775 43.128C73.6975 43.64 72.5882 43.896 71.6495 43.896ZM89.6405 43.896C88.1045 43.896 86.9952 43.384 86.3125 42.36C85.6298 41.336 85.2885 40.056 85.2885 38.52C85.2885 37.3253 85.4165 36.1733 85.6725 35.064C85.9285 33.8693 86.7392 31.9067 88.1045 29.176C89.4698 26.36 90.9632 23.416 92.5845 20.344C91.7312 20.6853 90.7925 21.0693 89.7685 21.496C88.8298 21.8373 88.1472 22.2213 87.7205 22.648C87.3792 22.8187 87.1658 22.904 87.0805 22.904C86.8245 22.904 86.6965 22.7333 86.6965 22.392C86.6965 21.624 87.1658 20.8987 88.1045 20.216C89.0432 19.5333 89.9392 19.064 90.7925 18.808C91.7312 18.552 92.7978 18.2533 93.9925 17.912C94.9312 16.2053 95.9125 14.456 96.9365 12.664C98.0458 10.7867 99.0272 9.16533 99.8805 7.8C100.478 6.94666 101.331 5.88 102.441 4.6C103.55 3.23466 104.787 2.12533 106.153 1.272C106.921 0.759998 107.945 0.503998 109.225 0.503998C110.163 0.503998 110.675 0.674665 110.761 1.016C109.481 1.35733 108.158 2.21067 106.793 3.576C105.513 4.94133 104.275 6.52 103.081 8.312C101.886 10.104 100.862 11.8107 100.009 13.432C99.1552 14.968 98.5152 16.1627 98.0885 17.016C99.8805 16.76 101.374 16.632 102.569 16.632C103.251 16.632 103.849 16.6747 104.361 16.76C104.873 16.76 105.299 16.8027 105.641 16.888C106.323 16.9733 106.665 17.1867 106.665 17.528C106.665 17.8693 106.238 18.04 105.385 18.04C104.702 18.04 103.891 18.04 102.953 18.04C102.099 18.04 101.161 18.1253 100.137 18.296C99.3685 18.3813 98.5578 18.6373 97.7045 19.064C96.9365 19.4907 96.4245 19.96 96.1685 20.472C94.2912 23.8853 92.6272 27.1707 91.1765 30.328C89.7258 33.4853 88.9152 35.8747 88.7445 37.496C88.4885 40.2267 89.2992 41.592 91.1765 41.592C93.0538 41.592 94.9312 40.7813 96.8085 39.16C98.7712 37.4533 100.606 35.4907 102.312 33.272C104.019 31.0533 105.385 29.176 106.409 27.64C106.75 27.2987 106.963 27.128 107.049 27.128C107.305 27.128 107.433 27.3413 107.433 27.768C107.433 28.1093 107.305 28.4933 107.049 28.92C105.598 31.1387 103.934 33.4 102.057 35.704C100.179 38.008 98.1738 39.9707 96.0405 41.592C93.9925 43.128 91.8592 43.896 89.6405 43.896ZM115.321 45.048C113.529 45.048 111.907 44.92 110.457 44.664C109.091 44.408 108.067 44.152 107.385 43.896C106.446 43.5547 105.721 43.128 105.209 42.616C104.782 42.0187 104.569 41.5067 104.569 41.08C104.569 40.4827 104.867 40.184 105.465 40.184C105.891 40.184 106.403 40.44 107.001 40.952C108.195 41.976 109.347 42.5733 110.457 42.744C111.395 42.744 112.633 42.616 114.169 42.36C115.705 42.0187 116.771 41.5493 117.369 40.952C118.393 39.928 118.905 38.904 118.905 37.88C118.905 37.1973 118.691 36.5573 118.265 35.96C117.923 35.2773 117.411 34.6373 116.729 34.04C115.619 33.1013 114.51 32.1627 113.401 31.224C112.291 30.2 111.353 29.0907 110.585 27.896C109.39 26.0187 108.793 24.184 108.793 22.392C108.793 19.6613 109.689 17.1013 111.481 14.712C113.358 12.3227 115.363 10.36 117.497 8.824C119.801 7.20266 122.147 6.392 124.537 6.392C125.817 6.392 127.011 6.69066 128.121 7.288C129.23 7.8 130.083 8.65333 130.681 9.848C130.766 10.0187 130.809 10.232 130.809 10.488C130.809 11 130.638 11.3413 130.297 11.512C129.955 11.6827 129.699 11.512 129.529 11C129.017 9.63467 127.609 8.952 125.305 8.952C123.939 8.952 122.446 9.208 120.825 9.72C119.289 10.232 118.051 10.8293 117.113 11.512C114.211 13.7307 112.76 16.5893 112.76 20.088C112.76 22.5627 113.571 24.7813 115.193 26.744C116.302 28.1093 117.454 29.3893 118.649 30.584C119.929 31.6933 120.995 32.8027 121.849 33.912C122.702 34.936 123.001 35.96 122.745 36.984C122.318 38.8613 121.081 40.3973 119.033 41.592C117.07 42.7013 115.235 43.3413 113.529 43.512C114.041 43.5973 114.979 43.64 116.345 43.64C121.209 43.64 125.347 42.0187 128.761 38.776C132.259 35.5333 135.459 31.6933 138.361 27.256C138.531 27 138.702 26.872 138.873 26.872C139.043 26.872 139.129 27.0853 139.129 27.512C139.129 28.024 138.915 28.6213 138.489 29.304C135.246 34.2533 131.875 38.136 128.377 40.952C124.963 43.6827 120.611 45.048 115.321 45.048Z" fill="white"/>
</svg>
